<svg width="108" height="16" viewBox="0 0 108 16" fill="none" xmlns="http://www.w3.org/2000/svg">
<path fill-rule="evenodd" clip-rule="evenodd" d="M12.0059 15.9882H4.95646C4.11808 15.9882 4 15.6576 4 14.8192C4 14.1107 4.10627 13.6738 4.95646 13.6738H12.0059H12.8207C13.0511 13.6738 13.277 13.6747 13.4979 13.6757L13.4982 13.6757H13.4986H13.4989C16.1976 13.687 18.1343 13.6951 18.1343 11.938C18.1343 10.2784 17.232 10.2383 12.8399 10.043L12.7026 10.0369C6.34982 9.78893 4.20074 8.97417 4.20074 4.67601C4.20074 0.24797 8.56974 0 13.7181 0H14.5801H21.6295C22.4679 0 22.586 0.330627 22.586 1.1572C22.586 1.85387 22.4797 2.29077 21.6295 2.29077H14.5801H14.4384C14.2151 2.29077 13.9973 2.28966 13.7854 2.28857C11.4191 2.27644 9.79779 2.26813 9.79779 3.86125C9.79779 5.35857 10.5394 5.39574 14.4451 5.59147L14.5565 5.59705C20.3424 5.84502 23.448 6.1048 23.448 10.7926C23.448 14.9845 20.3424 15.9882 13.3166 15.9882H12.0059ZM39.2118 8.06495C39.566 8.06495 40.6406 8.01771 40.6406 8.01771C42.5771 7.95867 43.817 7.63985 43.817 5.10111C43.817 2.6214 42.2937 2.1845 40.0384 2.1845H36.059C35.2561 2.1845 34.9963 2.52694 34.9963 3.18819V7.28561V8.30111V14.0871C34.9963 15.7875 34.5594 15.9882 32.4812 15.9882H31.7845C29.5882 15.9882 29.1867 15.7875 29.1867 14.0871V2.13727C29.1867 0.4369 29.5882 0 31.7845 0H42.3764C46.4384 0 49.9336 0.401476 49.9336 5.01845C49.9336 9.48192 46.0369 10.2613 41.2192 10.2376C41.2192 10.2376 39.7195 10.2258 39.2708 10.2258L39.2506 10.2258C38.9144 10.2263 38.2908 10.2272 38.2908 9.13948C38.2908 8.06003 38.8484 8.06305 39.1745 8.06481L39.2118 8.06495ZM99.8465 13.7683C99.2089 13.7683 98.9845 13.662 98.4296 12.7646L92.1004 1.78303C91.3801 0.602214 90.4591 0 88.865 0H83.693C81.91 0 81.0952 0.543173 81.0952 2.24354V15.0081C81.0952 15.8701 81.7093 15.9882 82.6893 15.9882C83.8465 15.9882 84.307 15.8701 84.307 15.0081V3.28266C84.307 2.4797 84.4724 2.21993 85.169 2.21993C85.8067 2.21993 86.031 2.3262 86.586 3.22362L92.9152 14.2052C93.6355 15.386 94.5565 15.9882 96.1506 15.9882H101.323C103.106 15.9882 103.92 15.445 103.92 13.7446V0.980074C103.92 0.118081 103.46 0 102.303 0C101.323 0 100.709 0.118081 100.709 0.980074V12.7055C100.709 13.5085 100.543 13.7683 99.8465 13.7683ZM67.3742 11.6782H60.8207C60.372 11.6782 60.2067 11.2413 60.5846 10.5092C60.9742 9.77712 61.234 9.34022 62.0015 9.34022H66.217C66.8193 9.34022 66.9728 8.93875 66.772 8.53727L63.8554 2.79852C63.5956 2.27897 63.2768 2.19631 62.6746 2.19631H62.3912C61.789 2.19631 61.4938 2.27897 61.2104 2.79852L58.1993 8.53727L56.0621 12.6583C55.9218 12.9235 55.7938 13.1677 55.676 13.3925L55.6753 13.3938C54.3354 15.9501 54.3093 16 52.5078 16C51.1499 16 50.713 15.7166 51.2089 14.7838L58.4945 1.49963C59.1322 0.283395 59.6754 0 61.2694 0H66.5359C68.13 0 68.6731 0.318819 69.3462 1.49963L76.1713 13.8037C77.1277 15.5631 76.7735 15.9882 74.0576 15.9882C70.2171 15.9882 70.2073 15.9654 68.8638 12.8165L68.7912 12.6465C68.4724 11.9026 68.3307 11.6782 67.3742 11.6782ZM105.479 0.708487C105.373 0.909225 105.314 1.12177 105.314 1.34613C105.314 1.57048 105.373 1.78303 105.503 1.98376C105.609 2.1845 105.762 2.33801 105.963 2.45609C106.164 2.57417 106.376 2.63321 106.613 2.63321C106.849 2.63321 107.061 2.57417 107.262 2.45609C107.463 2.33801 107.616 2.1845 107.723 1.98376C107.829 1.78303 107.888 1.57048 107.888 1.34613C107.888 1.10996 107.829 0.897417 107.711 0.696679C107.593 0.495941 107.439 0.342435 107.238 0.224354C107.038 0.118081 106.825 0.0590406 106.601 0.0590406C106.365 0.0590406 106.152 0.118081 105.951 0.236162C105.751 0.354244 105.597 0.507749 105.479 0.708487ZM105.644 1.90111C105.538 1.72399 105.491 1.54686 105.491 1.34613C105.491 1.14539 105.538 0.956458 105.644 0.791144C105.739 0.62583 105.88 0.484133 106.046 0.389668C106.223 0.283395 106.4 0.236162 106.601 0.236162C106.801 0.236162 106.99 0.295203 107.156 0.389668C107.321 0.484133 107.463 0.62583 107.557 0.791144C107.663 0.968266 107.711 1.14539 107.711 1.34613C107.711 1.54686 107.652 1.73579 107.557 1.90111C107.463 2.06642 107.321 2.20812 107.156 2.30258C106.979 2.40886 106.801 2.45609 106.601 2.45609C106.4 2.45609 106.223 2.39705 106.046 2.30258C105.88 2.20812 105.739 2.07823 105.644 1.90111ZM107.049 1.27528C107.097 1.21624 107.12 1.13358 107.12 1.03911C107.12 0.885609 107.073 0.767528 106.99 0.696679C106.908 0.62583 106.766 0.590406 106.577 0.590406H106.128V2.10185H106.376V1.49963H106.613L106.967 2.10185H107.25L106.849 1.42878C106.931 1.39336 107.002 1.34613 107.049 1.27528ZM106.565 1.29889H106.388V0.802952H106.565C106.672 0.802952 106.754 0.826568 106.801 0.861993C106.849 0.909225 106.872 0.968266 106.872 1.05092C106.872 1.12177 106.849 1.18081 106.79 1.22804C106.731 1.27528 106.66 1.29889 106.565 1.29889Z" fill="#1F1F1F"/>
</svg>
